<?xml version="1.0" encoding="UTF-8" standalone="no"?>
<!DOCTYPE svg PUBLIC "-//W3C//DTD SVG 1.1//EN"
 "http://www.w3.org/Graphics/SVG/1.1/DTD/svg11.dtd">
<!-- Generated by graphviz version 3.0.0 (20221109.1736)
 -->
<!-- Pages: 1 -->
<svg width="3133pt" height="902pt"
 viewBox="0.00 0.00 3133.36 902.36" xmlns="http://www.w3.org/2000/svg" xmlns:xlink="http://www.w3.org/1999/xlink">
<g id="graph0" class="graph" transform="scale(1 1) rotate(0) translate(36 866.36)">
<polygon fill="white" stroke="transparent" points="-36,36 -36,-866.36 3097.36,-866.36 3097.36,36 -36,36"/>
<!-- zookeeper -->
<g id="node1" class="node">
<title>zookeeper</title>
<polygon fill="none" stroke="black" points="1903.07,-125 1666.07,-125 1666.07,-121 1662.07,-121 1662.07,-117 1666.07,-117 1666.07,-95 1662.07,-95 1662.07,-91 1666.07,-91 1666.07,-87 1903.07,-87 1903.07,-125"/>
<polyline fill="none" stroke="black" points="1666.07,-121 1670.07,-121 1670.07,-117 1666.07,-117 "/>
<polyline fill="none" stroke="black" points="1666.07,-95 1670.07,-95 1670.07,-91 1666.07,-91 "/>
<text text-anchor="middle" x="1784.57" y="-109.8" font-family="Times,serif" font-size="14.00">zookeeper</text>
<text text-anchor="middle" x="1784.57" y="-94.8" font-family="Times,serif" font-size="14.00">(confluentinc/cp&#45;zookeeper:7.5.0)</text>
</g>
<!-- skyfall_backbone -->
<g id="node2" class="node">
<title>skyfall_backbone</title>
<polygon fill="none" stroke="black" points="1361.43,-23.56 1234.57,-36 1107.7,-23.56 1156.16,-3.44 1312.98,-3.44 1361.43,-23.56"/>
<text text-anchor="middle" x="1234.57" y="-14.3" font-family="Times,serif" font-size="14.00">net:skyfall_backbone</text>
</g>
<!-- zookeeper&#45;&gt;skyfall_backbone -->
<g id="edge1" class="edge">
<title>zookeeper&#45;&gt;skyfall_backbone</title>
<path fill="none" stroke="black" d="M1746.19,-86.96C1720.1,-75.53 1684.47,-61.53 1651.57,-54 1556.46,-32.24 1446.39,-23.68 1363.22,-20.45"/>
<polygon fill="black" stroke="black" points="1363.34,-16.96 1353.21,-20.09 1363.08,-23.95 1363.34,-16.96"/>
</g>
<!-- kafka -->
<g id="node3" class="node">
<title>kafka</title>
<polygon fill="none" stroke="black" points="1903.57,-277.79 1697.57,-277.79 1697.57,-273.79 1693.57,-273.79 1693.57,-269.79 1697.57,-269.79 1697.57,-247.79 1693.57,-247.79 1693.57,-243.79 1697.57,-243.79 1697.57,-239.79 1903.57,-239.79 1903.57,-277.79"/>
<polyline fill="none" stroke="black" points="1697.57,-273.79 1701.57,-273.79 1701.57,-269.79 1697.57,-269.79 "/>
<polyline fill="none" stroke="black" points="1697.57,-247.79 1701.57,-247.79 1701.57,-243.79 1697.57,-243.79 "/>
<text text-anchor="middle" x="1800.57" y="-262.59" font-family="Times,serif" font-size="14.00">kafka</text>
<text text-anchor="middle" x="1800.57" y="-247.59" font-family="Times,serif" font-size="14.00">(confluentinc/cp&#45;kafka:7.5.0)</text>
</g>
<!-- kafka&#45;&gt;zookeeper -->
<g id="edge5" class="edge">
<title>kafka&#45;&gt;zookeeper</title>
<path fill="none" stroke="black" stroke-dasharray="1,5" d="M1798.64,-239.61C1795.89,-213.68 1790.81,-165.86 1787.57,-135.28"/>
<polygon fill="black" stroke="black" points="1791.04,-134.83 1786.51,-125.25 1784.08,-135.57 1791.04,-134.83"/>
</g>
<!-- kafka&#45;&gt;skyfall_backbone -->
<g id="edge2" class="edge">
<title>kafka&#45;&gt;skyfall_backbone</title>
<path fill="none" stroke="black" d="M1787.83,-239.46C1769.29,-214.12 1732.48,-168.63 1690.57,-143 1625.16,-103 1412.17,-55.31 1301.98,-32.48"/>
<polygon fill="black" stroke="black" points="1302.47,-29.01 1291.97,-30.41 1301.06,-35.86 1302.47,-29.01"/>
</g>
<!-- skyfall_public -->
<g id="node4" class="node">
<title>skyfall_public</title>
<polygon fill="none" stroke="black" points="1494.98,-111.56 1386.57,-124 1278.16,-111.56 1319.57,-91.44 1453.57,-91.44 1494.98,-111.56"/>
<text text-anchor="middle" x="1386.57" y="-102.3" font-family="Times,serif" font-size="14.00">net:skyfall_public</text>
</g>
<!-- kafka&#45;&gt;skyfall_public -->
<g id="edge3" class="edge">
<title>kafka&#45;&gt;skyfall_public</title>
<path fill="none" stroke="black" d="M1770.03,-239.55C1747.49,-225.25 1716.83,-203.98 1693.57,-181 1678.64,-166.26 1683.65,-153.64 1665.57,-143 1638,-126.77 1565.6,-117.73 1501.46,-112.76"/>
<polygon fill="black" stroke="black" points="1501.48,-109.25 1491.24,-112 1500.96,-116.23 1501.48,-109.25"/>
</g>
<!-- 0.0.0.09092 -->
<g id="node5" class="node">
<title>0.0.0.09092</title>
<ellipse fill="none" stroke="black" cx="1915.57" cy="-429.38" rx="59.59" ry="59.59"/>
<text text-anchor="middle" x="1915.57" y="-425.68" font-family="Times,serif" font-size="14.00">0.0.0.0:9092</text>
</g>
<!-- 0.0.0.09092&#45;&gt;kafka -->
<g id="edge4" class="edge">
<title>0.0.0.09092&#45;&gt;kafka</title>
<path fill="none" stroke="black" d="M1881.38,-380.18C1874.76,-370.73 1867.92,-360.87 1861.57,-351.59 1846.63,-329.73 1830.02,-304.69 1817.91,-286.29"/>
<polygon fill="black" stroke="black" points="1820.77,-284.27 1812.35,-277.83 1814.92,-288.11 1820.77,-284.27"/>
<text text-anchor="middle" x="1877.07" y="-340.39" font-family="Times,serif" font-size="14.00">9092</text>
</g>
<!-- elasticsearch -->
<g id="node6" class="node">
<title>elasticsearch</title>
<polygon fill="none" stroke="black" points="2630.07,-125 2271.07,-125 2271.07,-121 2267.07,-121 2267.07,-117 2271.07,-117 2271.07,-95 2267.07,-95 2267.07,-91 2271.07,-91 2271.07,-87 2630.07,-87 2630.07,-125"/>
<polyline fill="none" stroke="black" points="2271.07,-121 2275.07,-121 2275.07,-117 2271.07,-117 "/>
<polyline fill="none" stroke="black" points="2271.07,-95 2275.07,-95 2275.07,-91 2271.07,-91 "/>
<text text-anchor="middle" x="2450.57" y="-109.8" font-family="Times,serif" font-size="14.00">elasticsearch</text>
<text text-anchor="middle" x="2450.57" y="-94.8" font-family="Times,serif" font-size="14.00">(docker.elastic.co/elasticsearch/elasticsearch:8.12.0)</text>
</g>
<!-- elasticsearch&#45;&gt;skyfall_backbone -->
<g id="edge6" class="edge">
<title>elasticsearch&#45;&gt;skyfall_backbone</title>
<path fill="none" stroke="black" d="M2395.22,-86.93C2356.78,-75.25 2304.12,-60.98 2256.57,-54 2087.92,-29.26 1597.28,-21.94 1362.56,-19.83"/>
<polygon fill="black" stroke="black" points="1362.3,-16.33 1352.27,-19.74 1362.24,-23.33 1362.3,-16.33"/>
</g>
<!-- es_data -->
<g id="node7" class="node">
<title>es_data</title>
<path fill="none" stroke="black" d="M2484.07,-32.73C2484.07,-34.53 2469.05,-36 2450.57,-36 2432.08,-36 2417.07,-34.53 2417.07,-32.73 2417.07,-32.73 2417.07,-3.27 2417.07,-3.27 2417.07,-1.47 2432.08,0 2450.57,0 2469.05,0 2484.07,-1.47 2484.07,-3.27 2484.07,-3.27 2484.07,-32.73 2484.07,-32.73"/>
<path fill="none" stroke="black" d="M2484.07,-32.73C2484.07,-30.92 2469.05,-29.45 2450.57,-29.45 2432.08,-29.45 2417.07,-30.92 2417.07,-32.73"/>
<text text-anchor="middle" x="2450.57" y="-14.3" font-family="Times,serif" font-size="14.00">es_data</text>
</g>
<!-- elasticsearch&#45;&gt;es_data -->
<g id="edge7" class="edge">
<title>elasticsearch&#45;&gt;es_data</title>
<path fill="none" stroke="black" stroke-dasharray="5,2" d="M2450.57,-76.58C2450.57,-66.83 2450.57,-55.95 2450.57,-46.3"/>
<polygon fill="black" stroke="black" points="2447.07,-76.76 2450.57,-86.76 2454.07,-76.76 2447.07,-76.76"/>
<polygon fill="black" stroke="black" points="2454.07,-46.04 2450.57,-36.04 2447.07,-46.04 2454.07,-46.04"/>
<text text-anchor="middle" x="2546.57" y="-57.8" font-family="Times,serif" font-size="14.00">/usr/share/elasticsearch/data</text>
</g>
<!-- 0.0.0.09200 -->
<g id="node8" class="node">
<title>0.0.0.09200</title>
<ellipse fill="none" stroke="black" cx="2292.57" cy="-258.79" rx="59.59" ry="59.59"/>
<text text-anchor="middle" x="2292.57" y="-255.09" font-family="Times,serif" font-size="14.00">0.0.0.0:9200</text>
</g>
<!-- 0.0.0.09200&#45;&gt;elasticsearch -->
<g id="edge8" class="edge">
<title>0.0.0.09200&#45;&gt;elasticsearch</title>
<path fill="none" stroke="black" d="M2335.33,-216.99C2363.69,-189.91 2400.02,-155.24 2424.23,-132.13"/>
<polygon fill="black" stroke="black" points="2426.82,-134.5 2431.64,-125.06 2421.99,-129.44 2426.82,-134.5"/>
<text text-anchor="middle" x="2427.07" y="-158.3" font-family="Times,serif" font-size="14.00">9200</text>
</g>
<!-- neo4j -->
<g id="node9" class="node">
<title>neo4j</title>
<polygon fill="none" stroke="black" points="2811.57,-125 2707.57,-125 2707.57,-121 2703.57,-121 2703.57,-117 2707.57,-117 2707.57,-95 2703.57,-95 2703.57,-91 2707.57,-91 2707.57,-87 2811.57,-87 2811.57,-125"/>
<polyline fill="none" stroke="black" points="2707.57,-121 2711.57,-121 2711.57,-117 2707.57,-117 "/>
<polyline fill="none" stroke="black" points="2707.57,-95 2711.57,-95 2711.57,-91 2707.57,-91 "/>
<text text-anchor="middle" x="2759.57" y="-109.8" font-family="Times,serif" font-size="14.00">neo4j</text>
<text text-anchor="middle" x="2759.57" y="-94.8" font-family="Times,serif" font-size="14.00">(neo4j:5.15.0)</text>
</g>
<!-- neo4j&#45;&gt;skyfall_backbone -->
<g id="edge9" class="edge">
<title>neo4j&#45;&gt;skyfall_backbone</title>
<path fill="none" stroke="black" d="M2707.38,-96.52C2686.35,-93.28 2661.84,-89.71 2639.57,-87 2554.05,-76.61 2532.29,-77.56 2446.57,-69 2383.86,-62.74 2368.44,-58.37 2305.57,-54 1965.87,-30.41 1564.44,-22.66 1363.2,-20.16"/>
<polygon fill="black" stroke="black" points="1363.22,-16.66 1353.18,-20.04 1363.14,-23.66 1363.22,-16.66"/>
</g>
<!-- neo4j_data -->
<g id="node10" class="node">
<title>neo4j_data</title>
<path fill="none" stroke="black" d="M2804.57,-32.73C2804.57,-34.53 2784.4,-36 2759.57,-36 2734.74,-36 2714.57,-34.53 2714.57,-32.73 2714.57,-32.73 2714.57,-3.27 2714.57,-3.27 2714.57,-1.47 2734.74,0 2759.57,0 2784.4,0 2804.57,-1.47 2804.57,-3.27 2804.57,-3.27 2804.57,-32.73 2804.57,-32.73"/>
<path fill="none" stroke="black" d="M2804.57,-32.73C2804.57,-30.92 2784.4,-29.45 2759.57,-29.45 2734.74,-29.45 2714.57,-30.92 2714.57,-32.73"/>
<text text-anchor="middle" x="2759.57" y="-14.3" font-family="Times,serif" font-size="14.00">neo4j_data</text>
</g>
<!-- neo4j&#45;&gt;neo4j_data -->
<g id="edge10" class="edge">
<title>neo4j&#45;&gt;neo4j_data</title>
<path fill="none" stroke="black" stroke-dasharray="5,2" d="M2759.57,-76.58C2759.57,-66.83 2759.57,-55.95 2759.57,-46.3"/>
<polygon fill="black" stroke="black" points="2756.07,-76.76 2759.57,-86.76 2763.07,-76.76 2756.07,-76.76"/>
<polygon fill="black" stroke="black" points="2763.07,-46.04 2759.57,-36.04 2756.07,-46.04 2763.07,-46.04"/>
<text text-anchor="middle" x="2776.57" y="-57.8" font-family="Times,serif" font-size="14.00">/data</text>
</g>
<!-- 0.0.0.07474 -->
<g id="node11" class="node">
<title>0.0.0.07474</title>
<ellipse fill="none" stroke="black" cx="2863.57" cy="-258.79" rx="59.59" ry="59.59"/>
<text text-anchor="middle" x="2863.57" y="-255.09" font-family="Times,serif" font-size="14.00">0.0.0.0:7474</text>
</g>
<!-- 0.0.0.07474&#45;&gt;neo4j -->
<g id="edge11" class="edge">
<title>0.0.0.07474&#45;&gt;neo4j</title>
<path fill="none" stroke="black" d="M2832.81,-207.18C2819.98,-186.85 2804.59,-163.45 2789.57,-143 2787.2,-139.77 2784.63,-136.46 2782.03,-133.2"/>
<polygon fill="black" stroke="black" points="2784.63,-130.85 2775.58,-125.34 2779.21,-135.29 2784.63,-130.85"/>
<text text-anchor="middle" x="2830.07" y="-158.3" font-family="Times,serif" font-size="14.00">7474</text>
</g>
<!-- 0.0.0.07687 -->
<g id="node12" class="node">
<title>0.0.0.07687</title>
<ellipse fill="none" stroke="black" cx="3001.57" cy="-258.79" rx="59.59" ry="59.59"/>
<text text-anchor="middle" x="3001.57" y="-255.09" font-family="Times,serif" font-size="14.00">0.0.0.0:7687</text>
</g>
<!-- 0.0.0.07687&#45;&gt;neo4j -->
<g id="edge12" class="edge">
<title>0.0.0.07687&#45;&gt;neo4j</title>
<path fill="none" stroke="black" d="M2957.26,-218.29C2928.24,-193.99 2888.58,-163.66 2849.57,-143 2840.12,-138 2829.81,-133.26 2819.66,-128.96"/>
<polygon fill="black" stroke="black" points="2820.99,-125.72 2810.41,-125.15 2818.32,-132.19 2820.99,-125.72"/>
<text text-anchor="middle" x="2922.07" y="-158.3" font-family="Times,serif" font-size="14.00">7687</text>
</g>
<!-- n8n&#45;cve -->
<g id="node13" class="node">
<title>n8n&#45;cve</title>
<polygon fill="none" stroke="black" points="1549.57,-618.97 1361.57,-618.97 1361.57,-614.97 1357.57,-614.97 1357.57,-610.97 1361.57,-610.97 1361.57,-588.97 1357.57,-588.97 1357.57,-584.97 1361.57,-584.97 1361.57,-580.97 1549.57,-580.97 1549.57,-618.97"/>
<polyline fill="none" stroke="black" points="1361.57,-614.97 1365.57,-614.97 1365.57,-610.97 1361.57,-610.97 "/>
<polyline fill="none" stroke="black" points="1361.57,-588.97 1365.57,-588.97 1365.57,-584.97 1361.57,-584.97 "/>
<text text-anchor="middle" x="1455.57" y="-603.77" font-family="Times,serif" font-size="14.00">n8n&#45;cve</text>
<text text-anchor="middle" x="1455.57" y="-588.77" font-family="Times,serif" font-size="14.00">(docker.n8n.io/n8nio/n8n)</text>
</g>
<!-- n8n&#45;cve&#45;&gt;skyfall_backbone -->
<g id="edge14" class="edge">
<title>n8n&#45;cve&#45;&gt;skyfall_backbone</title>
<path fill="none" stroke="black" d="M1549.68,-593.31C1686.72,-582.87 1930.77,-555.29 1984.57,-489.18 2007.88,-460.53 1997.99,-227.34 1972.57,-143 1964.23,-115.34 1961.69,-105.58 1939.57,-87 1907.58,-60.14 1892.44,-62.61 1851.57,-54 1762.48,-35.22 1520.31,-25.96 1367.21,-21.85"/>
<polygon fill="black" stroke="black" points="1366.89,-18.34 1356.8,-21.57 1366.7,-25.34 1366.89,-18.34"/>
</g>
<!-- n8n&#45;cve&#45;&gt;kafka -->
<g id="edge17" class="edge">
<title>n8n&#45;cve&#45;&gt;kafka</title>
<path fill="none" stroke="black" stroke-dasharray="1,5" d="M1549.78,-591.82C1621.31,-581.12 1716.17,-554.62 1769.57,-489.18 1817.06,-430.97 1811.72,-335.46 1805.39,-288.16"/>
<polygon fill="black" stroke="black" points="1808.82,-287.42 1803.91,-278.03 1801.89,-288.43 1808.82,-287.42"/>
</g>
<!-- n8n&#45;cve&#45;&gt;skyfall_public -->
<g id="edge13" class="edge">
<title>n8n&#45;cve&#45;&gt;skyfall_public</title>
<path fill="none" stroke="black" d="M1454.55,-580.86C1452.2,-532.5 1448.47,-401.8 1474.57,-369.59 1492.1,-347.96 1515.42,-371.8 1534.57,-351.59 1565.47,-318.99 1569.72,-246.53 1542.57,-199 1520.52,-160.4 1475.25,-136.38 1439.13,-122.6"/>
<polygon fill="black" stroke="black" points="1440.29,-119.3 1429.69,-119.15 1437.88,-125.87 1440.29,-119.3"/>
</g>
<!-- n8n_cve_data -->
<g id="node14" class="node">
<title>n8n_cve_data</title>
<path fill="none" stroke="black" d="M1427.57,-444.11C1427.57,-445.92 1403.36,-447.38 1373.57,-447.38 1343.77,-447.38 1319.57,-445.92 1319.57,-444.11 1319.57,-444.11 1319.57,-414.66 1319.57,-414.66 1319.57,-412.85 1343.77,-411.38 1373.57,-411.38 1403.36,-411.38 1427.57,-412.85 1427.57,-414.66 1427.57,-414.66 1427.57,-444.11 1427.57,-444.11"/>
<path fill="none" stroke="black" d="M1427.57,-444.11C1427.57,-442.31 1403.36,-440.84 1373.57,-440.84 1343.77,-440.84 1319.57,-442.31 1319.57,-444.11"/>
<text text-anchor="middle" x="1373.57" y="-425.68" font-family="Times,serif" font-size="14.00">n8n_cve_data</text>
</g>
<!-- n8n&#45;cve&#45;&gt;n8n_cve_data -->
<g id="edge15" class="edge">
<title>n8n&#45;cve&#45;&gt;n8n_cve_data</title>
<path fill="none" stroke="black" stroke-dasharray="5,2" d="M1392.8,-576.49C1368.55,-564.37 1343.36,-546.74 1329.57,-522.18 1317.15,-500.07 1332.48,-473.9 1348.35,-455.17"/>
<polygon fill="black" stroke="black" points="1391.49,-579.74 1402.02,-580.87 1394.49,-573.42 1391.49,-579.74"/>
<polygon fill="black" stroke="black" points="1351.04,-457.42 1355.11,-447.64 1345.83,-452.75 1351.04,-457.42"/>
<text text-anchor="middle" x="1385.57" y="-510.98" font-family="Times,serif" font-size="14.00">/home/node/.n8n</text>
</g>
<!-- kevin&#45;api -->
<g id="node16" class="node">
<title>kevin&#45;api</title>
<polygon fill="none" stroke="black" points="1057.07,-448.38 818.07,-448.38 818.07,-444.38 814.07,-444.38 814.07,-440.38 818.07,-440.38 818.07,-418.38 814.07,-418.38 814.07,-414.38 818.07,-414.38 818.07,-410.38 1057.07,-410.38 1057.07,-448.38"/>
<polyline fill="none" stroke="black" points="818.07,-444.38 822.07,-444.38 822.07,-440.38 818.07,-440.38 "/>
<polyline fill="none" stroke="black" points="818.07,-418.38 822.07,-418.38 822.07,-414.38 818.07,-414.38 "/>
<text text-anchor="middle" x="937.57" y="-433.18" font-family="Times,serif" font-size="14.00">kevin&#45;api</text>
<text text-anchor="middle" x="937.57" y="-418.18" font-family="Times,serif" font-size="14.00">(build from &#39;../services/kevin&#45;api&#39;)</text>
</g>
<!-- n8n&#45;cve&#45;&gt;kevin&#45;api -->
<g id="edge18" class="edge">
<title>n8n&#45;cve&#45;&gt;kevin&#45;api</title>
<path fill="none" stroke="black" stroke-dasharray="1,5" d="M1404.19,-580.95C1368.58,-568.75 1319.96,-552.63 1276.57,-540.18 1244.45,-530.96 1235.67,-531.47 1203.57,-522.18 1159.02,-509.28 1148.44,-504.21 1104.57,-489.18 1069.13,-477.03 1029.57,-463.12 997.86,-451.89"/>
<polygon fill="black" stroke="black" points="998.88,-448.53 988.29,-448.49 996.54,-455.13 998.88,-448.53"/>
</g>
<!-- 0.0.0.05678 -->
<g id="node15" class="node">
<title>0.0.0.05678</title>
<ellipse fill="none" stroke="black" cx="1455.57" cy="-770.56" rx="59.59" ry="59.59"/>
<text text-anchor="middle" x="1455.57" y="-766.86" font-family="Times,serif" font-size="14.00">0.0.0.0:5678</text>
</g>
<!-- 0.0.0.05678&#45;&gt;n8n&#45;cve -->
<g id="edge16" class="edge">
<title>0.0.0.05678&#45;&gt;n8n&#45;cve</title>
<path fill="none" stroke="black" d="M1455.57,-710.6C1455.57,-683.02 1455.57,-651.45 1455.57,-629.29"/>
<polygon fill="black" stroke="black" points="1459.07,-629.23 1455.57,-619.23 1452.07,-629.23 1459.07,-629.23"/>
<text text-anchor="middle" x="1471.07" y="-681.57" font-family="Times,serif" font-size="14.00">5678</text>
</g>
<!-- kevin&#45;api&#45;&gt;skyfall_backbone -->
<g id="edge38" class="edge">
<title>kevin&#45;api&#45;&gt;skyfall_backbone</title>
<path fill="none" stroke="black" d="M933.93,-410.26C926.69,-369.06 914.65,-266.69 957.57,-199 975.06,-171.41 1057.09,-142.66 1084.57,-125 1127.78,-97.22 1176.01,-62.43 1205.82,-40.45"/>
<polygon fill="black" stroke="black" points="1208.13,-43.09 1214.09,-34.33 1203.97,-37.46 1208.13,-43.09"/>
</g>
<!-- kevin&#45;api&#45;&gt;skyfall_public -->
<g id="edge39" class="edge">
<title>kevin&#45;api&#45;&gt;skyfall_public</title>
<path fill="none" stroke="black" d="M973.83,-410.34C1000.4,-397.65 1037.6,-380.97 1071.57,-369.59 1164.69,-338.4 1215.96,-386.84 1286.57,-318.59 1344.74,-262.36 1287.82,-209.03 1334.57,-143 1338.89,-136.9 1344.58,-131.5 1350.62,-126.86"/>
<polygon fill="black" stroke="black" points="1352.79,-129.61 1358.97,-121 1348.77,-123.88 1352.79,-129.61"/>
</g>
<!-- kevin&#45;mongo -->
<g id="node24" class="node">
<title>kevin&#45;mongo</title>
<polygon fill="none" stroke="black" points="1076.07,-125 971.07,-125 971.07,-121 967.07,-121 967.07,-117 971.07,-117 971.07,-95 967.07,-95 967.07,-91 971.07,-91 971.07,-87 1076.07,-87 1076.07,-125"/>
<polyline fill="none" stroke="black" points="971.07,-121 975.07,-121 975.07,-117 971.07,-117 "/>
<polyline fill="none" stroke="black" points="971.07,-95 975.07,-95 975.07,-91 971.07,-91 "/>
<text text-anchor="middle" x="1023.57" y="-109.8" font-family="Times,serif" font-size="14.00">kevin&#45;mongo</text>
<text text-anchor="middle" x="1023.57" y="-94.8" font-family="Times,serif" font-size="14.00">(mongo:7)</text>
</g>
<!-- kevin&#45;api&#45;&gt;kevin&#45;mongo -->
<g id="edge41" class="edge">
<title>kevin&#45;api&#45;&gt;kevin&#45;mongo</title>
<path fill="none" stroke="black" stroke-dasharray="1,5" d="M931.21,-410.15C918.3,-370.01 892.85,-271.77 924.57,-199 931.75,-182.53 965.77,-152.84 991.95,-131.64"/>
<polygon fill="black" stroke="black" points="994.17,-134.34 999.78,-125.36 989.79,-128.88 994.17,-134.34"/>
</g>
<!-- kevin&#45;redis -->
<g id="node26" class="node">
<title>kevin&#45;redis</title>
<polygon fill="none" stroke="black" points="926.57,-181 810.57,-181 810.57,-177 806.57,-177 806.57,-173 810.57,-173 810.57,-151 806.57,-151 806.57,-147 810.57,-147 810.57,-143 926.57,-143 926.57,-181"/>
<polyline fill="none" stroke="black" points="810.57,-177 814.57,-177 814.57,-173 810.57,-173 "/>
<polyline fill="none" stroke="black" points="810.57,-151 814.57,-151 814.57,-147 810.57,-147 "/>
<text text-anchor="middle" x="868.57" y="-165.8" font-family="Times,serif" font-size="14.00">kevin&#45;redis</text>
<text text-anchor="middle" x="868.57" y="-150.8" font-family="Times,serif" font-size="14.00">(redis:7&#45;alpine)</text>
</g>
<!-- kevin&#45;api&#45;&gt;kevin&#45;redis -->
<g id="edge42" class="edge">
<title>kevin&#45;api&#45;&gt;kevin&#45;redis</title>
<path fill="none" stroke="black" stroke-dasharray="1,5" d="M927.64,-410.37C919.35,-394.99 907.5,-372.17 898.57,-351.59 892.36,-337.27 890.16,-333.78 886.57,-318.59 876.28,-275.03 871.78,-223.17 869.88,-191.68"/>
<polygon fill="black" stroke="black" points="873.36,-191.23 869.31,-181.44 866.37,-191.62 873.36,-191.23"/>
</g>
<!-- kevin&#45;update -->
<g id="node27" class="node">
<title>kevin&#45;update</title>
<polygon fill="none" stroke="black" points="1206.07,-277.79 967.07,-277.79 967.07,-273.79 963.07,-273.79 963.07,-269.79 967.07,-269.79 967.07,-247.79 963.07,-247.79 963.07,-243.79 967.07,-243.79 967.07,-239.79 1206.07,-239.79 1206.07,-277.79"/>
<polyline fill="none" stroke="black" points="967.07,-273.79 971.07,-273.79 971.07,-269.79 967.07,-269.79 "/>
<polyline fill="none" stroke="black" points="967.07,-247.79 971.07,-247.79 971.07,-243.79 967.07,-243.79 "/>
<text text-anchor="middle" x="1086.57" y="-262.59" font-family="Times,serif" font-size="14.00">kevin&#45;update</text>
<text text-anchor="middle" x="1086.57" y="-247.59" font-family="Times,serif" font-size="14.00">(build from &#39;../services/kevin&#45;api&#39;)</text>
</g>
<!-- kevin&#45;api&#45;&gt;kevin&#45;update -->
<g id="edge43" class="edge">
<title>kevin&#45;api&#45;&gt;kevin&#45;update</title>
<path fill="none" stroke="black" stroke-dasharray="1,5" d="M953.51,-410.34C979.99,-380.38 1033.14,-320.25 1063.64,-285.74"/>
<polygon fill="black" stroke="black" points="1066.51,-287.77 1070.51,-277.96 1061.27,-283.14 1066.51,-287.77"/>
</g>
<!-- n8n&#45;osint -->
<g id="node17" class="node">
<title>n8n&#45;osint</title>
<polygon fill="none" stroke="black" points="1301.57,-448.38 1113.57,-448.38 1113.57,-444.38 1109.57,-444.38 1109.57,-440.38 1113.57,-440.38 1113.57,-418.38 1109.57,-418.38 1109.57,-414.38 1113.57,-414.38 1113.57,-410.38 1301.57,-410.38 1301.57,-448.38"/>
<polyline fill="none" stroke="black" points="1113.57,-444.38 1117.57,-444.38 1117.57,-440.38 1113.57,-440.38 "/>
<polyline fill="none" stroke="black" points="1113.57,-418.38 1117.57,-418.38 1117.57,-414.38 1113.57,-414.38 "/>
<text text-anchor="middle" x="1207.57" y="-433.18" font-family="Times,serif" font-size="14.00">n8n&#45;osint</text>
<text text-anchor="middle" x="1207.57" y="-418.18" font-family="Times,serif" font-size="14.00">(docker.n8n.io/n8nio/n8n)</text>
</g>
<!-- n8n&#45;osint&#45;&gt;skyfall_backbone -->
<g id="edge20" class="edge">
<title>n8n&#45;osint&#45;&gt;skyfall_backbone</title>
<path fill="none" stroke="black" d="M1208.76,-410.27C1213.04,-345.37 1227.63,-124.28 1232.76,-46.41"/>
<polygon fill="black" stroke="black" points="1236.28,-46.21 1233.45,-36 1229.3,-45.74 1236.28,-46.21"/>
</g>
<!-- n8n&#45;osint&#45;&gt;kafka -->
<g id="edge23" class="edge">
<title>n8n&#45;osint&#45;&gt;kafka</title>
<path fill="none" stroke="black" stroke-dasharray="1,5" d="M1231.96,-410.34C1251.98,-396.58 1281.65,-378.52 1310.57,-369.59 1406,-340.13 1436.81,-372.04 1534.57,-351.59 1611.32,-335.53 1696.4,-303.52 1749.19,-281.88"/>
<polygon fill="black" stroke="black" points="1750.75,-285.02 1758.66,-277.97 1748.08,-278.55 1750.75,-285.02"/>
</g>
<!-- n8n&#45;osint&#45;&gt;skyfall_public -->
<g id="edge19" class="edge">
<title>n8n&#45;osint&#45;&gt;skyfall_public</title>
<path fill="none" stroke="black" d="M1236.73,-410.3C1257.05,-398.06 1284.98,-381.94 1310.57,-369.59 1329.97,-360.23 1341.7,-368.07 1355.57,-351.59 1408.47,-288.74 1399.47,-182.66 1391.66,-133.49"/>
<polygon fill="black" stroke="black" points="1395.11,-132.9 1389.98,-123.63 1388.21,-134.07 1395.11,-132.9"/>
</g>
<!-- n8n_osint_data -->
<g id="node18" class="node">
<title>n8n_osint_data</title>
<path fill="none" stroke="black" d="M1534.07,-273.52C1534.07,-275.33 1507.4,-276.79 1474.57,-276.79 1441.74,-276.79 1415.07,-275.33 1415.07,-273.52 1415.07,-273.52 1415.07,-244.07 1415.07,-244.07 1415.07,-242.26 1441.74,-240.79 1474.57,-240.79 1507.4,-240.79 1534.07,-242.26 1534.07,-244.07 1534.07,-244.07 1534.07,-273.52 1534.07,-273.52"/>
<path fill="none" stroke="black" d="M1534.07,-273.52C1534.07,-271.72 1507.4,-270.25 1474.57,-270.25 1441.74,-270.25 1415.07,-271.72 1415.07,-273.52"/>
<text text-anchor="middle" x="1474.57" y="-255.09" font-family="Times,serif" font-size="14.00">n8n_osint_data</text>
</g>
<!-- n8n&#45;osint&#45;&gt;n8n_osint_data -->
<g id="edge21" class="edge">
<title>n8n&#45;osint&#45;&gt;n8n_osint_data</title>
<path fill="none" stroke="black" stroke-dasharray="5,2" d="M1242.41,-404.75C1261.74,-392.61 1286.65,-378.54 1310.57,-369.59 1348.77,-355.29 1365.68,-372.73 1400.57,-351.59 1426.8,-335.69 1447.67,-306.96 1460.48,-285.86"/>
<polygon fill="black" stroke="black" points="1240.48,-401.83 1233.94,-410.16 1244.25,-407.72 1240.48,-401.83"/>
<polygon fill="black" stroke="black" points="1463.59,-287.46 1465.62,-277.06 1457.55,-283.93 1463.59,-287.46"/>
<text text-anchor="middle" x="1474.57" y="-340.39" font-family="Times,serif" font-size="14.00">/home/node/.n8n</text>
</g>
<!-- 0.0.0.05679 -->
<g id="node19" class="node">
<title>0.0.0.05679</title>
<ellipse fill="none" stroke="black" cx="1207.57" cy="-599.97" rx="59.59" ry="59.59"/>
<text text-anchor="middle" x="1207.57" y="-596.27" font-family="Times,serif" font-size="14.00">0.0.0.0:5679</text>
</g>
<!-- 0.0.0.05679&#45;&gt;n8n&#45;osint -->
<g id="edge22" class="edge">
<title>0.0.0.05679&#45;&gt;n8n&#45;osint</title>
<path fill="none" stroke="black" d="M1207.57,-540.01C1207.57,-512.43 1207.57,-480.86 1207.57,-458.7"/>
<polygon fill="black" stroke="black" points="1211.07,-458.64 1207.57,-448.64 1204.07,-458.64 1211.07,-458.64"/>
<text text-anchor="middle" x="1223.07" y="-510.98" font-family="Times,serif" font-size="14.00">5678</text>
</g>
<!-- telegram&#45;crawler -->
<g id="node20" class="node">
<title>telegram&#45;crawler</title>
<polygon fill="none" stroke="black" points="1012.57,-618.97 720.57,-618.97 720.57,-614.97 716.57,-614.97 716.57,-610.97 720.57,-610.97 720.57,-588.97 716.57,-588.97 716.57,-584.97 720.57,-584.97 720.57,-580.97 1012.57,-580.97 1012.57,-618.97"/>
<polyline fill="none" stroke="black" points="720.57,-614.97 724.57,-614.97 724.57,-610.97 720.57,-610.97 "/>
<polyline fill="none" stroke="black" points="720.57,-588.97 724.57,-588.97 724.57,-584.97 720.57,-584.97 "/>
<text text-anchor="middle" x="866.57" y="-603.77" font-family="Times,serif" font-size="14.00">telegram&#45;crawler</text>
<text text-anchor="middle" x="866.57" y="-588.77" font-family="Times,serif" font-size="14.00">(build from &#39;../services/telegram&#45;crawler&#39;)</text>
</g>
<!-- telegram&#45;crawler&#45;&gt;skyfall_backbone -->
<g id="edge24" class="edge">
<title>telegram&#45;crawler&#45;&gt;skyfall_backbone</title>
<path fill="none" stroke="black" d="M755.23,-580.96C677.53,-568.68 571.36,-552.48 477.57,-540.18 376.03,-526.86 98.9,-553.93 19.57,-489.18 -1.71,-471.81 0.57,-457.85 0.57,-430.38 0.57,-430.38 0.57,-430.38 0.57,-105 0.57,-17.82 302.65,-60.79 389.57,-54 700.28,-29.71 779.71,-58.29 1090.57,-36 1110.44,-34.58 1131.78,-32.41 1151.79,-30.09"/>
<polygon fill="black" stroke="black" points="1152.29,-33.56 1161.81,-28.91 1151.46,-26.61 1152.29,-33.56"/>
</g>
<!-- telegram&#45;crawler&#45;&gt;skyfall_public -->
<g id="edge25" class="edge">
<title>telegram&#45;crawler&#45;&gt;skyfall_public</title>
<path fill="none" stroke="black" d="M923.07,-580.87C967.66,-563.85 1028.35,-534.18 1065.57,-489.18 1101.19,-446.09 1061.24,-404.92 1104.57,-369.59 1132.13,-347.12 1230.03,-363.42 1263.57,-351.59 1289.38,-342.48 1298.69,-340.14 1315.57,-318.59 1359.74,-262.21 1377.14,-176.94 1383.4,-133.89"/>
<polygon fill="black" stroke="black" points="1386.88,-134.28 1384.76,-123.9 1379.94,-133.34 1386.88,-134.28"/>
</g>
<!-- telegram&#45;crawler&#45;&gt;n8n&#45;osint -->
<g id="edge27" class="edge">
<title>telegram&#45;crawler&#45;&gt;n8n&#45;osint</title>
<path fill="none" stroke="black" stroke-dasharray="1,5" d="M946.06,-580.95C992.64,-568.43 1051.56,-549.12 1099.57,-522.18 1131.49,-504.27 1162.77,-476.18 1183.39,-455.79"/>
<polygon fill="black" stroke="black" points="1185.91,-458.22 1190.48,-448.66 1180.94,-453.28 1185.91,-458.22"/>
</g>
<!-- telegram_sessions -->
<g id="node21" class="node">
<title>telegram_sessions</title>
<path fill="none" stroke="black" d="M414.07,-444.11C414.07,-445.92 383.37,-447.38 345.57,-447.38 307.77,-447.38 277.07,-445.92 277.07,-444.11 277.07,-444.11 277.07,-414.66 277.07,-414.66 277.07,-412.85 307.77,-411.38 345.57,-411.38 383.37,-411.38 414.07,-412.85 414.07,-414.66 414.07,-414.66 414.07,-444.11 414.07,-444.11"/>
<path fill="none" stroke="black" d="M414.07,-444.11C414.07,-442.31 383.37,-440.84 345.57,-440.84 307.77,-440.84 277.07,-442.31 277.07,-444.11"/>
<text text-anchor="middle" x="345.57" y="-425.68" font-family="Times,serif" font-size="14.00">telegram_sessions</text>
</g>
<!-- telegram&#45;crawler&#45;&gt;telegram_sessions -->
<g id="edge26" class="edge">
<title>telegram&#45;crawler&#45;&gt;telegram_sessions</title>
<path fill="none" stroke="black" stroke-dasharray="5,2" d="M726.38,-579.12C636.7,-562.86 519.59,-534.9 423.57,-489.18 404.75,-480.22 386.03,-466.31 371.64,-454.28"/>
<polygon fill="black" stroke="black" points="725.89,-582.58 736.35,-580.89 727.12,-575.69 725.89,-582.58"/>
<polygon fill="black" stroke="black" points="373.57,-451.32 363.71,-447.45 369.01,-456.63 373.57,-451.32"/>
<text text-anchor="middle" x="547.57" y="-510.98" font-family="Times,serif" font-size="14.00">/app/sessions</text>
</g>
<!-- dumps&#45;crawler -->
<g id="node22" class="node">
<title>dumps&#45;crawler</title>
<polygon fill="none" stroke="black" points="1761.07,-448.38 1484.07,-448.38 1484.07,-444.38 1480.07,-444.38 1480.07,-440.38 1484.07,-440.38 1484.07,-418.38 1480.07,-418.38 1480.07,-414.38 1484.07,-414.38 1484.07,-410.38 1761.07,-410.38 1761.07,-448.38"/>
<polyline fill="none" stroke="black" points="1484.07,-444.38 1488.07,-444.38 1488.07,-440.38 1484.07,-440.38 "/>
<polyline fill="none" stroke="black" points="1484.07,-418.38 1488.07,-418.38 1488.07,-414.38 1484.07,-414.38 "/>
<text text-anchor="middle" x="1622.57" y="-433.18" font-family="Times,serif" font-size="14.00">dumps&#45;crawler</text>
<text text-anchor="middle" x="1622.57" y="-418.18" font-family="Times,serif" font-size="14.00">(build from &#39;../services/dumps&#45;crawler&#39;)</text>
</g>
<!-- dumps&#45;crawler&#45;&gt;skyfall_backbone -->
<g id="edge28" class="edge">
<title>dumps&#45;crawler&#45;&gt;skyfall_backbone</title>
<path fill="none" stroke="black" d="M1692.53,-410.31C1771.02,-389.79 1888.54,-358.3 1896.57,-351.59 1977.72,-283.75 2006.74,-196.21 1912.57,-87 1877.79,-46.67 1556.51,-29.43 1368.97,-22.75"/>
<polygon fill="black" stroke="black" points="1368.87,-19.25 1358.76,-22.4 1368.63,-26.24 1368.87,-19.25"/>
</g>
<!-- dumps&#45;crawler&#45;&gt;kafka -->
<g id="edge30" class="edge">
<title>dumps&#45;crawler&#45;&gt;kafka</title>
<path fill="none" stroke="black" stroke-dasharray="1,5" d="M1641.62,-410.34C1673.52,-380.13 1737.81,-319.23 1774.09,-284.87"/>
<polygon fill="black" stroke="black" points="1776.53,-287.38 1781.39,-277.96 1771.72,-282.3 1776.53,-287.38"/>
</g>
<!-- dumps&#45;crawler&#45;&gt;skyfall_public -->
<g id="edge29" class="edge">
<title>dumps&#45;crawler&#45;&gt;skyfall_public</title>
<path fill="none" stroke="black" d="M1625.94,-410.3C1634.16,-360.14 1649.54,-218 1576.57,-143 1563.19,-129.25 1523.87,-120.6 1484.45,-115.24"/>
<polygon fill="black" stroke="black" points="1484.81,-111.75 1474.44,-113.94 1483.91,-118.7 1484.81,-111.75"/>
</g>
<!-- intelowl -->
<g id="node23" class="node">
<title>intelowl</title>
<polygon fill="none" stroke="black" points="834.57,-277.79 604.57,-277.79 604.57,-273.79 600.57,-273.79 600.57,-269.79 604.57,-269.79 604.57,-247.79 600.57,-247.79 600.57,-243.79 604.57,-243.79 604.57,-239.79 834.57,-239.79 834.57,-277.79"/>
<polyline fill="none" stroke="black" points="604.57,-273.79 608.57,-273.79 608.57,-269.79 604.57,-269.79 "/>
<polyline fill="none" stroke="black" points="604.57,-247.79 608.57,-247.79 608.57,-243.79 604.57,-243.79 "/>
<text text-anchor="middle" x="719.57" y="-262.59" font-family="Times,serif" font-size="14.00">intelowl</text>
<text text-anchor="middle" x="719.57" y="-247.59" font-family="Times,serif" font-size="14.00">(intelowlproject/intelowl:v6.5.1)</text>
</g>
<!-- dumps&#45;crawler&#45;&gt;intelowl -->
<g id="edge31" class="edge">
<title>dumps&#45;crawler&#45;&gt;intelowl</title>
<path fill="none" stroke="black" stroke-dasharray="1,5" d="M1574.71,-410.34C1537.56,-397.05 1484.47,-379.6 1436.57,-369.59 1227.01,-325.77 1168.42,-355.68 957.57,-318.59 901.61,-308.75 839.29,-293.18 792.46,-280.54"/>
<polygon fill="black" stroke="black" points="793.28,-277.13 782.71,-277.88 791.44,-283.89 793.28,-277.13"/>
</g>
<!-- intelowl&#45;&gt;skyfall_backbone -->
<g id="edge44" class="edge">
<title>intelowl&#45;&gt;skyfall_backbone</title>
<path fill="none" stroke="black" d="M728.97,-239.75C736.82,-224.35 748.06,-201.5 756.57,-181 773.54,-140.1 757.62,-117.66 789.57,-87 838.52,-40.02 1023.1,-43.13 1090.57,-36 1108.92,-34.06 1128.58,-31.84 1147.28,-29.65"/>
<polygon fill="black" stroke="black" points="1147.74,-33.12 1157.26,-28.48 1146.92,-26.17 1147.74,-33.12"/>
</g>
<!-- intelowl&#45;&gt;skyfall_public -->
<g id="edge45" class="edge">
<title>intelowl&#45;&gt;skyfall_public</title>
<path fill="none" stroke="black" d="M790.22,-239.74C883.76,-216.11 1054.01,-174.06 1200.57,-143 1239.81,-134.68 1283.88,-126.12 1319.27,-119.43"/>
<polygon fill="black" stroke="black" points="1320.3,-122.8 1329.48,-117.51 1319,-115.92 1320.3,-122.8"/>
</g>
<!-- intelowl_generic_logs -->
<g id="node29" class="node">
<title>intelowl_generic_logs</title>
<path fill="none" stroke="black" d="M742.07,-120.73C742.07,-122.53 705.99,-124 661.57,-124 617.15,-124 581.07,-122.53 581.07,-120.73 581.07,-120.73 581.07,-91.27 581.07,-91.27 581.07,-89.47 617.15,-88 661.57,-88 705.99,-88 742.07,-89.47 742.07,-91.27 742.07,-91.27 742.07,-120.73 742.07,-120.73"/>
<path fill="none" stroke="black" d="M742.07,-120.73C742.07,-118.92 705.99,-117.45 661.57,-117.45 617.15,-117.45 581.07,-118.92 581.07,-120.73"/>
<text text-anchor="middle" x="661.57" y="-102.3" font-family="Times,serif" font-size="14.00">intelowl_generic_logs</text>
</g>
<!-- intelowl&#45;&gt;intelowl_generic_logs -->
<g id="edge46" class="edge">
<title>intelowl&#45;&gt;intelowl_generic_logs</title>
<path fill="none" stroke="black" stroke-dasharray="5,2" d="M682.46,-233.42C665.7,-220.14 647.65,-202.11 638.57,-181 631.9,-165.48 633.83,-159.21 638.57,-143 639.56,-139.62 640.97,-136.26 642.61,-133.03"/>
<polygon fill="black" stroke="black" points="680.45,-236.29 690.54,-239.55 684.68,-230.72 680.45,-236.29"/>
<polygon fill="black" stroke="black" points="645.67,-134.73 647.7,-124.33 639.63,-131.19 645.67,-134.73"/>
<text text-anchor="middle" x="697.57" y="-158.3" font-family="Times,serif" font-size="14.00">/var/log/intel_owl</text>
</g>
<!-- intelowl&#45;db -->
<g id="node31" class="node">
<title>intelowl&#45;db</title>
<polygon fill="none" stroke="black" points="562.57,-125 416.57,-125 416.57,-121 412.57,-121 412.57,-117 416.57,-117 416.57,-95 412.57,-95 412.57,-91 416.57,-91 416.57,-87 562.57,-87 562.57,-125"/>
<polyline fill="none" stroke="black" points="416.57,-121 420.57,-121 420.57,-117 416.57,-117 "/>
<polyline fill="none" stroke="black" points="416.57,-95 420.57,-95 420.57,-91 416.57,-91 "/>
<text text-anchor="middle" x="489.57" y="-109.8" font-family="Times,serif" font-size="14.00">intelowl&#45;db</text>
<text text-anchor="middle" x="489.57" y="-94.8" font-family="Times,serif" font-size="14.00">(postgres:16&#45;alpine)</text>
</g>
<!-- intelowl&#45;&gt;intelowl&#45;db -->
<g id="edge48" class="edge">
<title>intelowl&#45;&gt;intelowl&#45;db</title>
<path fill="none" stroke="black" stroke-dasharray="1,5" d="M691.83,-239.61C650.18,-212.3 571.51,-160.72 525.52,-130.57"/>
<polygon fill="black" stroke="black" points="527.33,-127.58 517.05,-125.02 523.5,-133.43 527.33,-127.58"/>
</g>
<!-- intelowl&#45;redis -->
<g id="node32" class="node">
<title>intelowl&#45;redis</title>
<polygon fill="none" stroke="black" points="914.57,-125 798.57,-125 798.57,-121 794.57,-121 794.57,-117 798.57,-117 798.57,-95 794.57,-95 794.57,-91 798.57,-91 798.57,-87 914.57,-87 914.57,-125"/>
<polyline fill="none" stroke="black" points="798.57,-121 802.57,-121 802.57,-117 798.57,-117 "/>
<polyline fill="none" stroke="black" points="798.57,-95 802.57,-95 802.57,-91 798.57,-91 "/>
<text text-anchor="middle" x="856.57" y="-109.8" font-family="Times,serif" font-size="14.00">intelowl&#45;redis</text>
<text text-anchor="middle" x="856.57" y="-94.8" font-family="Times,serif" font-size="14.00">(redis:7&#45;alpine)</text>
</g>
<!-- intelowl&#45;&gt;intelowl&#45;redis -->
<g id="edge49" class="edge">
<title>intelowl&#45;&gt;intelowl&#45;redis</title>
<path fill="none" stroke="black" stroke-dasharray="1,5" d="M734.58,-239.67C747.28,-224.22 765.87,-201.35 781.57,-181 794.38,-164.39 794.87,-157.97 809.57,-143 813.44,-139.06 817.76,-135.18 822.16,-131.52"/>
<polygon fill="black" stroke="black" points="824.46,-134.16 830.11,-125.2 820.11,-128.69 824.46,-134.16"/>
</g>
<!-- kevin&#45;mongo&#45;&gt;skyfall_backbone -->
<g id="edge32" class="edge">
<title>kevin&#45;mongo&#45;&gt;skyfall_backbone</title>
<path fill="none" stroke="black" d="M1043.97,-86.85C1057.26,-75.89 1075.45,-62.45 1093.57,-54 1114.18,-44.38 1137.77,-37.2 1159.68,-31.93"/>
<polygon fill="black" stroke="black" points="1160.66,-35.29 1169.61,-29.64 1159.08,-28.47 1160.66,-35.29"/>
</g>
<!-- kevin_mongo_data -->
<g id="node25" class="node">
<title>kevin_mongo_data</title>
<path fill="none" stroke="black" d="M1081.57,-32.73C1081.57,-34.53 1049.3,-36 1009.57,-36 969.84,-36 937.57,-34.53 937.57,-32.73 937.57,-32.73 937.57,-3.27 937.57,-3.27 937.57,-1.47 969.84,0 1009.57,0 1049.3,0 1081.57,-1.47 1081.57,-3.27 1081.57,-3.27 1081.57,-32.73 1081.57,-32.73"/>
<path fill="none" stroke="black" d="M1081.57,-32.73C1081.57,-30.92 1049.3,-29.45 1009.57,-29.45 969.84,-29.45 937.57,-30.92 937.57,-32.73"/>
<text text-anchor="middle" x="1009.57" y="-14.3" font-family="Times,serif" font-size="14.00">kevin_mongo_data</text>
</g>
<!-- kevin&#45;mongo&#45;&gt;kevin_mongo_data -->
<g id="edge33" class="edge">
<title>kevin&#45;mongo&#45;&gt;kevin_mongo_data</title>
<path fill="none" stroke="black" stroke-dasharray="5,2" d="M1012.5,-77.1C1011.73,-74.39 1011.06,-71.66 1010.57,-69 1009.23,-61.77 1008.67,-53.86 1008.51,-46.5"/>
<polygon fill="black" stroke="black" points="1009.19,-78.23 1015.63,-86.64 1015.84,-76.04 1009.19,-78.23"/>
<polygon fill="black" stroke="black" points="1012.01,-46.27 1008.54,-36.26 1005.01,-46.26 1012.01,-46.27"/>
<text text-anchor="middle" x="1038.07" y="-57.8" font-family="Times,serif" font-size="14.00">/data/db</text>
</g>
<!-- kevin&#45;redis&#45;&gt;skyfall_backbone -->
<g id="edge34" class="edge">
<title>kevin&#45;redis&#45;&gt;skyfall_backbone</title>
<path fill="none" stroke="black" d="M898.76,-142.83C907.04,-137.43 915.86,-131.26 923.57,-125 960.98,-94.59 961.12,-72.67 1005.57,-54 1018.91,-48.4 1089.63,-38.03 1149,-30.03"/>
<polygon fill="black" stroke="black" points="1149.73,-33.46 1159.17,-28.67 1148.8,-26.53 1149.73,-33.46"/>
</g>
<!-- kevin&#45;update&#45;&gt;skyfall_backbone -->
<g id="edge35" class="edge">
<title>kevin&#45;update&#45;&gt;skyfall_backbone</title>
<path fill="none" stroke="black" d="M1097.94,-239.45C1124.26,-196.98 1189.44,-91.82 1219.24,-43.72"/>
<polygon fill="black" stroke="black" points="1222.25,-45.51 1224.55,-35.17 1216.3,-41.82 1222.25,-45.51"/>
</g>
<!-- kevin&#45;update&#45;&gt;skyfall_public -->
<g id="edge36" class="edge">
<title>kevin&#45;update&#45;&gt;skyfall_public</title>
<path fill="none" stroke="black" d="M1111.49,-239.77C1146.34,-215.21 1212.27,-171.08 1273.57,-143 1291.74,-134.68 1312.37,-127.49 1330.99,-121.78"/>
<polygon fill="black" stroke="black" points="1332.23,-125.06 1340.81,-118.84 1330.22,-118.35 1332.23,-125.06"/>
</g>
<!-- kevin&#45;update&#45;&gt;kevin&#45;mongo -->
<g id="edge37" class="edge">
<title>kevin&#45;update&#45;&gt;kevin&#45;mongo</title>
<path fill="none" stroke="black" stroke-dasharray="1,5" d="M1078.97,-239.61C1068.04,-213.45 1047.81,-165.02 1035.05,-134.49"/>
<polygon fill="black" stroke="black" points="1038.28,-133.13 1031.19,-125.25 1031.82,-135.83 1038.28,-133.13"/>
</g>
<!-- 0.0.0.08001 -->
<g id="node28" class="node">
<title>0.0.0.08001</title>
<ellipse fill="none" stroke="black" cx="408.57" cy="-599.97" rx="59.59" ry="59.59"/>
<text text-anchor="middle" x="408.57" y="-596.27" font-family="Times,serif" font-size="14.00">0.0.0.0:8001</text>
</g>
<!-- 0.0.0.08001&#45;&gt;kevin&#45;api -->
<g id="edge40" class="edge">
<title>0.0.0.08001&#45;&gt;kevin&#45;api</title>
<path fill="none" stroke="black" d="M413.83,-540.16C417.76,-527.48 424.19,-515.42 434.57,-507.18 467.23,-481.23 769.04,-499.07 809.57,-489.18 840.64,-481.6 873.37,-466.42 897.96,-453.38"/>
<polygon fill="black" stroke="black" points="899.83,-456.35 906.96,-448.51 896.5,-450.19 899.83,-456.35"/>
<text text-anchor="middle" x="450.07" y="-510.98" font-family="Times,serif" font-size="14.00">8444</text>
</g>
<!-- 0.0.0.08002 -->
<g id="node30" class="node">
<title>0.0.0.08002</title>
<ellipse fill="none" stroke="black" cx="740.57" cy="-429.38" rx="59.59" ry="59.59"/>
<text text-anchor="middle" x="740.57" y="-425.68" font-family="Times,serif" font-size="14.00">0.0.0.0:8002</text>
</g>
<!-- 0.0.0.08002&#45;&gt;intelowl -->
<g id="edge47" class="edge">
<title>0.0.0.08002&#45;&gt;intelowl</title>
<path fill="none" stroke="black" d="M733.28,-369.89C729.84,-342.27 725.89,-310.55 723.12,-288.28"/>
<polygon fill="black" stroke="black" points="726.57,-287.65 721.86,-278.16 719.62,-288.52 726.57,-287.65"/>
<text text-anchor="middle" x="747.07" y="-340.39" font-family="Times,serif" font-size="14.00">8001</text>
</g>
<!-- intelowl&#45;db&#45;&gt;skyfall_backbone -->
<g id="edge55" class="edge">
<title>intelowl&#45;db&#45;&gt;skyfall_backbone</title>
<path fill="none" stroke="black" d="M562.86,-88.76C565.8,-88.16 568.71,-87.57 571.57,-87 653.48,-70.71 673.6,-63.6 756.57,-54 904.24,-36.92 942.45,-48.72 1090.57,-36 1109.79,-34.35 1130.41,-32.16 1149.87,-29.91"/>
<polygon fill="black" stroke="black" points="1150.4,-33.37 1159.92,-28.73 1149.58,-26.42 1150.4,-33.37"/>
</g>
<!-- intelowl_pg_data -->
<g id="node35" class="node">
<title>intelowl_pg_data</title>
<path fill="none" stroke="black" d="M555.07,-32.73C555.07,-34.53 525.71,-36 489.57,-36 453.43,-36 424.07,-34.53 424.07,-32.73 424.07,-32.73 424.07,-3.27 424.07,-3.27 424.07,-1.47 453.43,0 489.57,0 525.71,0 555.07,-1.47 555.07,-3.27 555.07,-3.27 555.07,-32.73 555.07,-32.73"/>
<path fill="none" stroke="black" d="M555.07,-32.73C555.07,-30.92 525.71,-29.45 489.57,-29.45 453.43,-29.45 424.07,-30.92 424.07,-32.73"/>
<text text-anchor="middle" x="489.57" y="-14.3" font-family="Times,serif" font-size="14.00">intelowl_pg_data</text>
</g>
<!-- intelowl&#45;db&#45;&gt;intelowl_pg_data -->
<g id="edge56" class="edge">
<title>intelowl&#45;db&#45;&gt;intelowl_pg_data</title>
<path fill="none" stroke="black" stroke-dasharray="5,2" d="M489.57,-76.58C489.57,-66.83 489.57,-55.95 489.57,-46.3"/>
<polygon fill="black" stroke="black" points="486.07,-76.76 489.57,-86.76 493.07,-76.76 486.07,-76.76"/>
<polygon fill="black" stroke="black" points="493.07,-46.04 489.57,-36.04 486.07,-46.04 493.07,-46.04"/>
<text text-anchor="middle" x="566.57" y="-57.8" font-family="Times,serif" font-size="14.00">/var/lib/postgresql/data</text>
</g>
<!-- intelowl&#45;redis&#45;&gt;skyfall_backbone -->
<g id="edge57" class="edge">
<title>intelowl&#45;redis&#45;&gt;skyfall_backbone</title>
<path fill="none" stroke="black" d="M876.36,-86.77C889.99,-75.34 909.1,-61.41 928.57,-54 996.28,-28.24 1018.6,-44.25 1090.57,-36 1108.51,-33.94 1127.69,-31.71 1146.03,-29.55"/>
<polygon fill="black" stroke="black" points="1146.59,-33.01 1156.11,-28.36 1145.77,-26.06 1146.59,-33.01"/>
</g>
<!-- intelowl&#45;celery&#45;beat -->
<g id="node33" class="node">
<title>intelowl&#45;celery&#45;beat</title>
<polygon fill="none" stroke="black" points="258.57,-448.38 28.57,-448.38 28.57,-444.38 24.57,-444.38 24.57,-440.38 28.57,-440.38 28.57,-418.38 24.57,-418.38 24.57,-414.38 28.57,-414.38 28.57,-410.38 258.57,-410.38 258.57,-448.38"/>
<polyline fill="none" stroke="black" points="28.57,-444.38 32.57,-444.38 32.57,-440.38 28.57,-440.38 "/>
<polyline fill="none" stroke="black" points="28.57,-418.38 32.57,-418.38 32.57,-414.38 28.57,-414.38 "/>
<text text-anchor="middle" x="143.57" y="-433.18" font-family="Times,serif" font-size="14.00">intelowl&#45;celery&#45;beat</text>
<text text-anchor="middle" x="143.57" y="-418.18" font-family="Times,serif" font-size="14.00">(intelowlproject/intelowl:v6.5.1)</text>
</g>
<!-- intelowl&#45;celery&#45;beat&#45;&gt;skyfall_backbone -->
<g id="edge50" class="edge">
<title>intelowl&#45;celery&#45;beat&#45;&gt;skyfall_backbone</title>
<path fill="none" stroke="black" d="M149.56,-410.02C172.23,-344.16 259.92,-120.21 423.57,-54 492.29,-26.19 1016.62,-41.35 1090.57,-36 1110.44,-34.56 1131.78,-32.39 1151.79,-30.07"/>
<polygon fill="black" stroke="black" points="1152.28,-33.54 1161.8,-28.89 1151.46,-26.59 1152.28,-33.54"/>
</g>
<!-- intelowl&#45;celery&#45;beat&#45;&gt;intelowl -->
<g id="edge51" class="edge">
<title>intelowl&#45;celery&#45;beat&#45;&gt;intelowl</title>
<path fill="none" stroke="black" stroke-dasharray="1,5" d="M176.73,-410.38C201.26,-397.62 235.79,-380.85 267.57,-369.59 381.77,-329.12 517.36,-298.38 610.05,-279.86"/>
<polygon fill="black" stroke="black" points="610.88,-283.26 620.01,-277.88 609.52,-276.4 610.88,-283.26"/>
</g>
<!-- intelowl&#45;celery&#45;worker -->
<g id="node34" class="node">
<title>intelowl&#45;celery&#45;worker</title>
<polygon fill="none" stroke="black" points="662.57,-448.38 432.57,-448.38 432.57,-444.38 428.57,-444.38 428.57,-440.38 432.57,-440.38 432.57,-418.38 428.57,-418.38 428.57,-414.38 432.57,-414.38 432.57,-410.38 662.57,-410.38 662.57,-448.38"/>
<polyline fill="none" stroke="black" points="432.57,-444.38 436.57,-444.38 436.57,-440.38 432.57,-440.38 "/>
<polyline fill="none" stroke="black" points="432.57,-418.38 436.57,-418.38 436.57,-414.38 432.57,-414.38 "/>
<text text-anchor="middle" x="547.57" y="-433.18" font-family="Times,serif" font-size="14.00">intelowl&#45;celery&#45;worker</text>
<text text-anchor="middle" x="547.57" y="-418.18" font-family="Times,serif" font-size="14.00">(intelowlproject/intelowl:v6.5.1)</text>
</g>
<!-- intelowl&#45;celery&#45;worker&#45;&gt;skyfall_backbone -->
<g id="edge52" class="edge">
<title>intelowl&#45;celery&#45;worker&#45;&gt;skyfall_backbone</title>
<path fill="none" stroke="black" d="M528.43,-410.14C475.07,-357.02 333.25,-199.13 407.57,-87 452.19,-19.67 574.7,-74.05 1090.57,-36 1110.33,-34.54 1131.55,-32.37 1151.46,-30.07"/>
<polygon fill="black" stroke="black" points="1151.91,-33.54 1161.43,-28.89 1151.09,-26.59 1151.91,-33.54"/>
</g>
<!-- intelowl&#45;celery&#45;worker&#45;&gt;skyfall_public -->
<g id="edge53" class="edge">
<title>intelowl&#45;celery&#45;worker&#45;&gt;skyfall_public</title>
<path fill="none" stroke="black" d="M578,-410.25C602.41,-396.63 638.03,-378.81 671.57,-369.59 788.43,-337.47 1112.75,-384.34 1214.57,-318.59 1290.01,-269.87 1249.37,-204.76 1314.57,-143 1322.33,-135.64 1331.89,-129.47 1341.48,-124.42"/>
<polygon fill="black" stroke="black" points="1343.18,-127.49 1350.62,-119.93 1340.1,-121.2 1343.18,-127.49"/>
</g>
<!-- intelowl&#45;celery&#45;worker&#45;&gt;intelowl -->
<g id="edge54" class="edge">
<title>intelowl&#45;celery&#45;worker&#45;&gt;intelowl</title>
<path fill="none" stroke="black" stroke-dasharray="1,5" d="M565.98,-410.34C596.67,-380.25 658.41,-319.74 693.54,-285.3"/>
<polygon fill="black" stroke="black" points="696.34,-287.46 701.03,-277.96 691.44,-282.46 696.34,-287.46"/>
</g>
<!-- consumer&#45;elastic -->
<g id="node36" class="node">
<title>consumer&#45;elastic</title>
<polygon fill="none" stroke="black" points="2321.57,-448.38 2031.57,-448.38 2031.57,-444.38 2027.57,-444.38 2027.57,-440.38 2031.57,-440.38 2031.57,-418.38 2027.57,-418.38 2027.57,-414.38 2031.57,-414.38 2031.57,-410.38 2321.57,-410.38 2321.57,-448.38"/>
<polyline fill="none" stroke="black" points="2031.57,-444.38 2035.57,-444.38 2035.57,-440.38 2031.57,-440.38 "/>
<polyline fill="none" stroke="black" points="2031.57,-418.38 2035.57,-418.38 2035.57,-414.38 2031.57,-414.38 "/>
<text text-anchor="middle" x="2176.57" y="-433.18" font-family="Times,serif" font-size="14.00">consumer&#45;elastic</text>
<text text-anchor="middle" x="2176.57" y="-418.18" font-family="Times,serif" font-size="14.00">(build from &#39;../services/consumer&#45;elastic&#39;)</text>
</g>
<!-- consumer&#45;elastic&#45;&gt;skyfall_backbone -->
<g id="edge58" class="edge">
<title>consumer&#45;elastic&#45;&gt;skyfall_backbone</title>
<path fill="none" stroke="black" d="M2143.83,-410.14C2122.78,-396.68 2096.63,-376.44 2081.57,-351.59 2011.63,-236.21 2124.05,-141.76 2021.57,-54 1997.07,-33.03 1581.39,-23.96 1364.3,-20.64"/>
<polygon fill="black" stroke="black" points="1364.17,-17.14 1354.12,-20.48 1364.06,-24.14 1364.17,-17.14"/>
</g>
<!-- consumer&#45;elastic&#45;&gt;kafka -->
<g id="edge59" class="edge">
<title>consumer&#45;elastic&#45;&gt;kafka</title>
<path fill="none" stroke="black" stroke-dasharray="1,5" d="M2136.33,-410.34C2067.02,-379.26 1925.33,-315.73 1850.08,-281.99"/>
<polygon fill="black" stroke="black" points="1851.36,-278.73 1840.8,-277.83 1848.49,-285.12 1851.36,-278.73"/>
</g>
<!-- consumer&#45;elastic&#45;&gt;elasticsearch -->
<g id="edge60" class="edge">
<title>consumer&#45;elastic&#45;&gt;elasticsearch</title>
<path fill="none" stroke="black" stroke-dasharray="1,5" d="M2174.93,-410.18C2172.14,-367.92 2171.18,-261.97 2223.57,-199 2253.21,-163.37 2298.77,-141.4 2341.31,-127.92"/>
<polygon fill="black" stroke="black" points="2342.35,-131.26 2350.91,-125 2340.32,-124.56 2342.35,-131.26"/>
</g>
<!-- consumer&#45;neo4j -->
<g id="node37" class="node">
<title>consumer&#45;neo4j</title>
<polygon fill="none" stroke="black" points="2623.57,-448.38 2339.57,-448.38 2339.57,-444.38 2335.57,-444.38 2335.57,-440.38 2339.57,-440.38 2339.57,-418.38 2335.57,-418.38 2335.57,-414.38 2339.57,-414.38 2339.57,-410.38 2623.57,-410.38 2623.57,-448.38"/>
<polyline fill="none" stroke="black" points="2339.57,-444.38 2343.57,-444.38 2343.57,-440.38 2339.57,-440.38 "/>
<polyline fill="none" stroke="black" points="2339.57,-418.38 2343.57,-418.38 2343.57,-414.38 2339.57,-414.38 "/>
<text text-anchor="middle" x="2481.57" y="-433.18" font-family="Times,serif" font-size="14.00">consumer&#45;neo4j</text>
<text text-anchor="middle" x="2481.57" y="-418.18" font-family="Times,serif" font-size="14.00">(build from &#39;../services/consumer&#45;neo4j&#39;)</text>
</g>
<!-- consumer&#45;neo4j&#45;&gt;skyfall_backbone -->
<g id="edge61" class="edge">
<title>consumer&#45;neo4j&#45;&gt;skyfall_backbone</title>
<path fill="none" stroke="black" d="M2436.07,-410.37C2406.16,-398.6 2366.11,-382.98 2330.57,-369.59 2268.6,-346.24 2240.23,-362.39 2190.57,-318.59 2089.51,-229.47 2164.1,-112.19 2042.57,-54 1982.88,-25.42 1572.85,-19.95 1360.9,-19.06"/>
<polygon fill="black" stroke="black" points="1360.66,-15.56 1350.64,-19.02 1360.63,-22.56 1360.66,-15.56"/>
</g>
<!-- consumer&#45;neo4j&#45;&gt;kafka -->
<g id="edge62" class="edge">
<title>consumer&#45;neo4j&#45;&gt;kafka</title>
<path fill="none" stroke="black" stroke-dasharray="1,5" d="M2444.39,-410.3C2414.41,-396.61 2370.77,-378.67 2330.57,-369.59 2223.64,-345.43 2192.76,-369.24 2084.57,-351.59 2026.16,-342.06 2011.99,-336.45 1955.57,-318.59 1921.15,-307.7 1883.25,-293.37 1853.55,-281.58"/>
<polygon fill="black" stroke="black" points="1854.79,-278.31 1844.2,-277.85 1852.19,-284.81 1854.79,-278.31"/>
</g>
<!-- consumer&#45;neo4j&#45;&gt;neo4j -->
<g id="edge63" class="edge">
<title>consumer&#45;neo4j&#45;&gt;neo4j</title>
<path fill="none" stroke="black" stroke-dasharray="1,5" d="M2536.22,-410.38C2580.64,-393.19 2642.03,-363.25 2680.57,-318.59 2727.67,-264.01 2747.86,-178.7 2755.5,-134.95"/>
<polygon fill="black" stroke="black" points="2758.97,-135.45 2757.15,-125.01 2752.06,-134.31 2758.97,-135.45"/>
</g>
<!-- correlation&#45;engine -->
<g id="node38" class="node">
<title>correlation&#45;engine</title>
<polygon fill="none" stroke="black" points="2671.07,-277.79 2370.07,-277.79 2370.07,-273.79 2366.07,-273.79 2366.07,-269.79 2370.07,-269.79 2370.07,-247.79 2366.07,-247.79 2366.07,-243.79 2370.07,-243.79 2370.07,-239.79 2671.07,-239.79 2671.07,-277.79"/>
<polyline fill="none" stroke="black" points="2370.07,-273.79 2374.07,-273.79 2374.07,-269.79 2370.07,-269.79 "/>
<polyline fill="none" stroke="black" points="2370.07,-247.79 2374.07,-247.79 2374.07,-243.79 2370.07,-243.79 "/>
<text text-anchor="middle" x="2520.57" y="-262.59" font-family="Times,serif" font-size="14.00">correlation&#45;engine</text>
<text text-anchor="middle" x="2520.57" y="-247.59" font-family="Times,serif" font-size="14.00">(build from &#39;../services/correlation&#45;engine&#39;)</text>
</g>
<!-- correlation&#45;engine&#45;&gt;skyfall_backbone -->
<g id="edge64" class="edge">
<title>correlation&#45;engine&#45;&gt;skyfall_backbone</title>
<path fill="none" stroke="black" d="M2466.27,-239.72C2410.18,-218.96 2322.61,-180.46 2262.57,-125 2235.3,-99.81 2250.68,-72.63 2218.57,-54 2182.28,-32.94 1622.64,-23.59 1363.93,-20.38"/>
<polygon fill="black" stroke="black" points="1363.77,-16.88 1353.72,-20.26 1363.68,-23.88 1363.77,-16.88"/>
</g>
<!-- correlation&#45;engine&#45;&gt;elasticsearch -->
<g id="edge67" class="edge">
<title>correlation&#45;engine&#45;&gt;elasticsearch</title>
<path fill="none" stroke="black" stroke-dasharray="1,5" d="M2512.12,-239.61C2499.98,-213.45 2477.5,-165.02 2463.33,-134.49"/>
<polygon fill="black" stroke="black" points="2466.43,-132.85 2459.04,-125.25 2460.08,-135.8 2466.43,-132.85"/>
</g>
<!-- correlation&#45;engine&#45;&gt;neo4j -->
<g id="edge66" class="edge">
<title>correlation&#45;engine&#45;&gt;neo4j</title>
<path fill="none" stroke="black" stroke-dasharray="1,5" d="M2549.4,-239.61C2592.76,-212.25 2674.76,-160.51 2722.51,-130.38"/>
<polygon fill="black" stroke="black" points="2724.42,-133.32 2731.01,-125.02 2720.68,-127.4 2724.42,-133.32"/>
</g>
<!-- 0.0.0.08003 -->
<g id="node39" class="node">
<title>0.0.0.08003</title>
<ellipse fill="none" stroke="black" cx="2701.57" cy="-429.38" rx="59.59" ry="59.59"/>
<text text-anchor="middle" x="2701.57" y="-425.68" font-family="Times,serif" font-size="14.00">0.0.0.0:8003</text>
</g>
<!-- 0.0.0.08003&#45;&gt;correlation&#45;engine -->
<g id="edge65" class="edge">
<title>0.0.0.08003&#45;&gt;correlation&#45;engine</title>
<path fill="none" stroke="black" d="M2658.78,-386.99C2650.53,-380.48 2641.62,-374.35 2632.57,-369.59 2605.28,-355.24 2589.37,-371.19 2565.57,-351.59 2545.88,-335.38 2534.11,-308.44 2527.58,-287.92"/>
<polygon fill="black" stroke="black" points="2530.89,-286.76 2524.7,-278.16 2524.17,-288.74 2530.89,-286.76"/>
<text text-anchor="middle" x="2581.07" y="-340.39" font-family="Times,serif" font-size="14.00">8000</text>
</g>
<!-- mcp&#45;server -->
<g id="node40" class="node">
<title>mcp&#45;server</title>
<polygon fill="none" stroke="black" points="3030.07,-448.38 2779.07,-448.38 2779.07,-444.38 2775.07,-444.38 2775.07,-440.38 2779.07,-440.38 2779.07,-418.38 2775.07,-418.38 2775.07,-414.38 2779.07,-414.38 2779.07,-410.38 3030.07,-410.38 3030.07,-448.38"/>
<polyline fill="none" stroke="black" points="2779.07,-444.38 2783.07,-444.38 2783.07,-440.38 2779.07,-440.38 "/>
<polyline fill="none" stroke="black" points="2779.07,-418.38 2783.07,-418.38 2783.07,-414.38 2779.07,-414.38 "/>
<text text-anchor="middle" x="2904.57" y="-433.18" font-family="Times,serif" font-size="14.00">mcp&#45;server</text>
<text text-anchor="middle" x="2904.57" y="-418.18" font-family="Times,serif" font-size="14.00">(build from &#39;../services/mcp&#45;server&#39;)</text>
</g>
<!-- mcp&#45;server&#45;&gt;skyfall_backbone -->
<g id="edge69" class="edge">
<title>mcp&#45;server&#45;&gt;skyfall_backbone</title>
<path fill="none" stroke="black" d="M2871.5,-410.29C2845.01,-396.7 2806.48,-378.88 2770.57,-369.59 2652.38,-339 2321.94,-390.9 2223.57,-318.59 2177.15,-284.47 2198.31,-251.03 2173.57,-199 2149.32,-148 2150.59,-129.64 2113.57,-87 2097.31,-68.27 2091.97,-62.21 2068.57,-54 2004.04,-31.37 1581.27,-23.08 1363.62,-20.29"/>
<polygon fill="black" stroke="black" points="1363.45,-16.79 1353.41,-20.16 1363.37,-23.79 1363.45,-16.79"/>
</g>
<!-- mcp&#45;server&#45;&gt;skyfall_public -->
<g id="edge68" class="edge">
<title>mcp&#45;server&#45;&gt;skyfall_public</title>
<path fill="none" stroke="black" d="M2872.72,-410.27C2846.29,-396.26 2807.23,-377.91 2770.57,-369.59 2652.62,-342.81 2343.38,-382.97 2226.57,-351.59 2212.93,-347.93 2211.15,-342.98 2198.57,-336.59 2072.81,-272.69 2045.1,-247.28 1912.57,-199 1818.17,-164.61 1792.35,-161.34 1693.57,-143 1623.87,-130.06 1544.35,-120.89 1483.71,-115.04"/>
<polygon fill="black" stroke="black" points="1483.66,-111.52 1473.38,-114.06 1483,-118.49 1483.66,-111.52"/>
</g>
<!-- mcp&#45;server&#45;&gt;elasticsearch -->
<g id="edge71" class="edge">
<title>mcp&#45;server&#45;&gt;elasticsearch</title>
<path fill="none" stroke="black" stroke-dasharray="1,5" d="M2879.62,-410.28C2858.45,-394.85 2827.35,-371.99 2800.57,-351.59 2781.68,-337.2 2774.6,-336.1 2758.57,-318.59 2715.72,-271.79 2729.64,-239.23 2680.57,-199 2639.12,-165.02 2583.51,-142.32 2537.36,-127.97"/>
<polygon fill="black" stroke="black" points="2538.25,-124.58 2527.66,-125.03 2536.22,-131.28 2538.25,-124.58"/>
</g>
<!-- mcp&#45;server&#45;&gt;neo4j -->
<g id="edge72" class="edge">
<title>mcp&#45;server&#45;&gt;neo4j</title>
<path fill="none" stroke="black" stroke-dasharray="1,5" d="M2878.58,-410.21C2852.83,-390.69 2814.44,-357.22 2794.57,-318.59 2763.7,-258.59 2759,-177.5 2758.88,-135.25"/>
<polygon fill="black" stroke="black" points="2762.38,-135.16 2758.94,-125.14 2755.38,-135.12 2762.38,-135.16"/>
</g>
<!-- mcp&#45;server&#45;&gt;correlation&#45;engine -->
<g id="edge73" class="edge">
<title>mcp&#45;server&#45;&gt;correlation&#45;engine</title>
<path fill="none" stroke="black" stroke-dasharray="1,5" d="M2866.66,-410.27C2840.1,-397.95 2803.59,-381.74 2770.57,-369.59 2744.44,-359.98 2736.52,-361.68 2710.57,-351.59 2658.47,-331.34 2600.99,-302.62 2563.04,-282.72"/>
<polygon fill="black" stroke="black" points="2564.31,-279.43 2553.83,-277.86 2561.04,-285.62 2564.31,-279.43"/>
</g>
<!-- 0.0.0.08000 -->
<g id="node41" class="node">
<title>0.0.0.08000</title>
<ellipse fill="none" stroke="black" cx="2904.57" cy="-599.97" rx="59.59" ry="59.59"/>
<text text-anchor="middle" x="2904.57" y="-596.27" font-family="Times,serif" font-size="14.00">0.0.0.0:8000</text>
</g>
<!-- 0.0.0.08000&#45;&gt;mcp&#45;server -->
<g id="edge70" class="edge">
<title>0.0.0.08000&#45;&gt;mcp&#45;server</title>
<path fill="none" stroke="black" d="M2904.57,-540.01C2904.57,-512.43 2904.57,-480.86 2904.57,-458.7"/>
<polygon fill="black" stroke="black" points="2908.07,-458.64 2904.57,-448.64 2901.07,-458.64 2908.07,-458.64"/>
<text text-anchor="middle" x="2920.07" y="-510.98" font-family="Times,serif" font-size="14.00">8000</text>
</g>
<!-- frontend -->
<g id="node42" class="node">
<title>frontend</title>
<polygon fill="none" stroke="black" points="2449.07,-618.97 2214.07,-618.97 2214.07,-614.97 2210.07,-614.97 2210.07,-610.97 2214.07,-610.97 2214.07,-588.97 2210.07,-588.97 2210.07,-584.97 2214.07,-584.97 2214.07,-580.97 2449.07,-580.97 2449.07,-618.97"/>
<polyline fill="none" stroke="black" points="2214.07,-614.97 2218.07,-614.97 2218.07,-610.97 2214.07,-610.97 "/>
<polyline fill="none" stroke="black" points="2214.07,-588.97 2218.07,-588.97 2218.07,-584.97 2214.07,-584.97 "/>
<text text-anchor="middle" x="2331.57" y="-603.77" font-family="Times,serif" font-size="14.00">frontend</text>
<text text-anchor="middle" x="2331.57" y="-588.77" font-family="Times,serif" font-size="14.00">(build from &#39;../services/frontend&#39;)</text>
</g>
<!-- frontend&#45;&gt;skyfall_public -->
<g id="edge74" class="edge">
<title>frontend&#45;&gt;skyfall_public</title>
<path fill="none" stroke="black" d="M2213.81,-596.88C2108.88,-589.66 1955.49,-565.42 1846.57,-489.18 1794.78,-452.93 1814.49,-414.06 1769.57,-369.59 1739.34,-339.66 1716.17,-350.96 1688.57,-318.59 1632.44,-252.76 1675.92,-191.92 1604.57,-143 1593.17,-135.19 1525.53,-124.76 1468.58,-117.14"/>
<polygon fill="black" stroke="black" points="1468.83,-113.65 1458.45,-115.8 1467.91,-120.58 1468.83,-113.65"/>
</g>
<!-- frontend&#45;&gt;mcp&#45;server -->
<g id="edge76" class="edge">
<title>frontend&#45;&gt;mcp&#45;server</title>
<path fill="none" stroke="black" stroke-dasharray="1,5" d="M2422.4,-580.94C2512.09,-562.04 2652.55,-529.51 2770.57,-489.18 2800.65,-478.9 2833.34,-464.62 2858.9,-452.71"/>
<polygon fill="black" stroke="black" points="2860.42,-455.86 2867.98,-448.44 2857.44,-449.53 2860.42,-455.86"/>
</g>
<!-- 0.0.0.03000 -->
<g id="node43" class="node">
<title>0.0.0.03000</title>
<ellipse fill="none" stroke="black" cx="2331.57" cy="-770.56" rx="59.59" ry="59.59"/>
<text text-anchor="middle" x="2331.57" y="-766.86" font-family="Times,serif" font-size="14.00">0.0.0.0:3000</text>
</g>
<!-- 0.0.0.03000&#45;&gt;frontend -->
<g id="edge75" class="edge">
<title>0.0.0.03000&#45;&gt;frontend</title>
<path fill="none" stroke="black" d="M2331.57,-710.6C2331.57,-683.02 2331.57,-651.45 2331.57,-629.29"/>
<polygon fill="black" stroke="black" points="2335.07,-629.23 2331.57,-619.23 2328.07,-629.23 2335.07,-629.23"/>
<text text-anchor="middle" x="2347.07" y="-681.57" font-family="Times,serif" font-size="14.00">3000</text>
</g>
</g>
</svg>
